# Blender v2.74 (sub 0) OBJ File: ''
# www.blender.org
mtllib capsule.mtl
o Mball_Meta
v -1.400000 -0.200000 1.070014
v -1.400000 0.200000 1.070014
v -1.000000 0.200000 1.150200
v -1.000000 -0.200000 1.150200
v -0.600000 0.200000 1.150200
v -0.600000 -0.200000 1.150200
v -1.000000 0.557515 1.000000
v -0.600000 0.557515 1.000000
v -1.000000 0.600000 0.981045
v -0.600000 0.600000 0.981045
v -1.000000 0.981045 0.600000
v -0.600000 0.981045 0.600000
v -1.000000 1.000000 0.557515
v -0.600000 1.000000 0.557515
v -1.000000 1.150200 0.200000
v -0.600000 1.150200 0.200000
v -1.000000 1.150200 -0.200000
v -0.600000 1.150200 -0.200000
v -1.000000 1.000000 -0.557515
v -0.600000 1.000000 -0.557515
v -1.000000 0.981045 -0.600000
v -0.600000 0.981045 -0.600000
v -1.000000 0.600000 -0.981045
v -0.600000 0.600000 -0.981045
v -1.000000 0.557515 -1.000000
v -0.600000 0.557515 -1.000000
v -1.000000 0.200000 -1.150200
v -0.600000 0.200000 -1.150200
v -1.000000 -0.200000 -1.150200
v -0.600000 -0.200000 -1.150200
v -1.000000 -0.557515 -1.000000
v -0.600000 -0.557515 -1.000000
v -1.000000 -0.600000 -0.981045
v -0.600000 -0.600000 -0.981045
v -1.000000 -0.981045 -0.600000
v -0.600000 -0.981045 -0.600000
v -1.000000 -1.000000 -0.557515
v -0.600000 -1.000000 -0.557515
v -1.000000 -1.150200 -0.200000
v -0.600000 -1.150200 -0.200000
v -1.000000 -1.150200 0.200000
v -0.600000 -1.150200 0.200000
v -1.000000 -1.000000 0.557515
v -0.600000 -1.000000 0.557515
v -1.000000 -0.981045 0.600000
v -0.600000 -0.981045 0.600000
v -1.000000 -0.600000 0.981045
v -0.600000 -0.600000 0.981045
v -1.000000 -0.557515 1.000000
v -0.600000 -0.557515 1.000000
v -0.200000 -0.557515 1.000000
v -0.200000 -0.600000 0.981045
v 0.200000 -0.557515 1.000000
v 0.200000 -0.600000 0.981045
v -0.200000 -0.981045 0.600000
v 0.200000 -0.981045 0.600000
v 0.200000 -1.000000 0.557515
v -0.200000 -1.000000 0.557515
v 0.600000 -0.981045 0.600000
v 0.600000 -1.000000 0.557515
v 0.200000 -1.150200 0.200000
v 0.600000 -1.150200 0.200000
v 0.600000 -1.150200 -0.200000
v 0.200000 -1.150200 -0.200000
v 0.600000 -1.000000 -0.557515
v 0.200000 -1.000000 -0.557515
v 0.200000 -0.981045 -0.600000
v 0.600000 -0.981045 -0.600000
v 0.600000 -0.600000 -0.981045
v 0.200000 -0.600000 -0.981045
v 0.200000 -0.557515 -1.000000
v 0.600000 -0.557515 -1.000000
v 0.600000 -0.200000 -1.150200
v 0.200000 -0.200000 -1.150200
v 0.600000 0.200000 -1.150200
v 0.200000 0.200000 -1.150200
v 0.200000 0.557515 -1.000000
v 0.600000 0.557515 -1.000000
v 0.600000 0.600000 -0.981045
v 0.200000 0.600000 -0.981045
v 0.200000 0.981045 -0.600000
v 0.600000 0.981045 -0.600000
v 0.600000 1.000000 -0.557515
v 0.200000 1.000000 -0.557515
v 0.200000 1.150200 -0.200000
v 0.600000 1.150200 -0.200000
v 0.200000 1.150200 0.200000
v 0.600000 1.150200 0.200000
v 0.600000 1.000000 0.557515
v 0.200000 1.000000 0.557515
v 0.200000 0.981045 0.600000
v 0.600000 0.981045 0.600000
v 0.600000 0.600000 0.981045
v 0.200000 0.600000 0.981045
v 0.200000 0.557515 1.000000
v 0.600000 0.557515 1.000000
v 0.600000 0.200000 1.150200
v 0.200000 0.200000 1.150200
v 0.200000 -0.200000 1.150200
v 0.600000 -0.200000 1.150200
v 0.600000 -0.557515 1.000000
v 1.000000 0.600000 0.981045
v 1.000000 0.557515 1.000000
v 1.400000 0.600000 0.895570
v 1.400000 0.364323 1.000000
v 1.000000 0.981045 0.600000
v 1.400000 0.895570 0.600000
v 1.773261 0.600000 0.600000
v 1.800000 0.557515 0.600000
v 1.800000 0.200000 0.800320
v 1.516304 0.200000 1.000000
v 1.800000 -0.200000 0.800320
v 1.516304 -0.200000 1.000000
v 1.400000 -0.364323 1.000000
v 1.800000 -0.557515 0.600000
v 1.773261 -0.600000 0.600000
v 1.400000 -0.600000 0.895570
v 1.400000 -0.895570 0.600000
v 1.800000 -0.600000 0.557515
v 1.800000 -0.800320 0.200000
v 1.516304 -1.000000 0.200000
v 1.400000 -1.000000 0.364323
v 1.800000 -0.800320 -0.200000
v 1.516304 -1.000000 -0.200000
v 1.400000 -0.895570 -0.600000
v 1.400000 -1.000000 -0.364323
v 1.800000 -0.600000 -0.557515
v 1.773261 -0.600000 -0.600000
v 1.800000 -0.557515 -0.600000
v 1.400000 -0.364323 -1.000000
v 1.400000 -0.600000 -0.895570
v 1.800000 -0.200000 -0.800320
v 1.516304 -0.200000 -1.000000
v 1.800000 0.200000 -0.800320
v 1.516304 0.200000 -1.000000
v 1.400000 0.364323 -1.000000
v 1.800000 0.557515 -0.600000
v 1.773261 0.600000 -0.600000
v 1.400000 0.600000 -0.895570
v 1.400000 0.895570 -0.600000
v 1.800000 0.600000 -0.557515
v 1.800000 0.800320 -0.200000
v 1.516304 1.000000 -0.200000
v 1.400000 1.000000 -0.364323
v 1.400000 1.070014 -0.200000
v 1.400000 1.070014 0.200000
v 1.516304 1.000000 0.200000
v 1.400000 1.000000 0.364323
v 1.000000 1.150200 0.200000
v 1.000000 1.000000 0.557515
v 1.000000 1.150200 -0.200000
v 1.000000 1.000000 -0.557515
v 1.969880 0.600000 -0.200000
v 1.969881 0.200000 -0.600000
v 2.121196 0.200000 -0.200000
v 2.121196 -0.200000 -0.200000
v 1.969881 -0.200000 -0.600000
v 2.121196 0.200000 0.200000
v 1.969880 0.600000 0.200000
v 1.800000 0.600000 0.557515
v 1.969881 0.200000 0.600000
v 1.800000 0.800320 0.200000
v 1.000000 0.981045 -0.600000
v 1.400000 0.200000 -1.070014
v 1.400000 -0.200000 -1.070014
v 1.969880 -0.600000 -0.200000
v 1.400000 -1.070014 -0.200000
v 1.000000 -1.150200 -0.200000
v 1.000000 -1.000000 -0.557515
v 1.000000 -0.981045 -0.600000
v 1.000000 -0.600000 -0.981045
v 1.969880 -0.600000 0.200000
v 1.000000 -0.981045 0.600000
v 1.000000 -1.000000 0.557515
v 1.000000 -0.600000 0.981045
v 0.600000 -0.600000 0.981045
v 1.000000 -0.557515 1.000000
v 1.400000 -0.200000 1.070014
v 1.969881 -0.200000 0.600000
v 1.400000 0.200000 1.070014
v -0.200000 0.557515 1.000000
v -0.200000 0.600000 0.981045
v -0.200000 0.981045 0.600000
v -0.200000 1.150200 -0.200000
v -0.200000 1.000000 -0.557515
v -0.200000 0.981045 -0.600000
v -0.200000 -0.981045 -0.600000
v -0.200000 -0.600000 -0.981045
v -0.200000 -1.000000 -0.557515
v -0.200000 -1.150200 -0.200000
v 1.000000 -1.150200 0.200000
v -1.400000 -0.364323 1.000000
v -1.400000 -0.600000 0.895570
v -1.800000 -0.557515 0.600000
v -1.800000 -0.200000 0.800320
v -1.516304 -0.200000 1.000000
v -1.773261 -0.600000 0.600000
v -1.800000 0.200000 0.800320
v -1.516304 0.200000 1.000000
v -1.800000 0.557515 0.600000
v -1.773261 0.600000 0.600000
v -1.400000 0.600000 0.895570
v -1.400000 0.364323 1.000000
v -1.400000 0.895570 0.600000
v -1.969881 0.200000 0.600000
v -1.969881 -0.200000 0.600000
v -2.121196 -0.200000 0.200000
v -2.121196 0.200000 0.200000
v -1.800000 -0.600000 0.557515
v -1.969880 -0.600000 0.200000
v -1.800000 -0.800320 0.200000
v -1.800000 -0.800320 -0.200000
v -1.969880 -0.600000 -0.200000
v -1.800000 -0.600000 -0.557515
v -1.800000 -0.557515 -0.600000
v -1.969881 -0.200000 -0.600000
v -2.121196 -0.200000 -0.200000
v -1.969881 0.200000 -0.600000
v -2.121196 0.200000 -0.200000
v -1.800000 0.557515 -0.600000
v -1.800000 0.600000 -0.557515
v -1.969880 0.600000 -0.200000
v -1.800000 0.800320 -0.200000
v -1.773261 0.600000 -0.600000
v -1.400000 0.895570 -0.600000
v -1.400000 1.000000 -0.364323
v -1.516304 1.000000 -0.200000
v -1.400000 1.070014 -0.200000
v -1.400000 1.070014 0.200000
v -1.516304 1.000000 0.200000
v -1.400000 1.000000 0.364323
v -1.800000 0.200000 -0.800320
v -1.800000 -0.200000 -0.800320
v -1.773261 -0.600000 -0.600000
v -1.516304 -1.000000 -0.200000
v -1.400000 -1.000000 -0.364323
v -1.400000 -0.895570 -0.600000
v -1.400000 -1.070014 -0.200000
v -1.400000 -0.600000 -0.895570
v -1.516304 -1.000000 0.200000
v -1.400000 -0.895570 0.600000
v -1.400000 -1.000000 0.364323
v -1.400000 -1.070014 0.200000
v -1.800000 0.800320 0.200000
v -1.800000 0.600000 0.557515
v -1.969880 0.600000 0.200000
v -1.400000 -0.200000 -1.070014
v -1.400000 0.200000 -1.070014
v -1.400000 -0.364323 -1.000000
v -1.516304 0.200000 -1.000000
v -1.516304 -0.200000 -1.000000
v -1.400000 0.364323 -1.000000
v -1.400000 0.600000 -0.895570
v -0.200000 -0.200000 1.150200
v -0.200000 0.200000 1.150200
v -0.200000 -1.150200 0.200000
v -0.200000 1.150200 0.200000
v -0.200000 1.000000 0.557515
v -0.200000 -0.200000 -1.150200
v -0.200000 0.200000 -1.150200
v -0.200000 -0.557515 -1.000000
v -0.200000 0.557515 -1.000000
v -0.200000 0.600000 -0.981045
v 1.000000 -0.200000 1.150200
v 1.000000 0.200000 1.150200
v 1.400000 -1.070014 0.200000
v 2.121196 -0.200000 0.200000
v 1.000000 -0.200000 -1.150200
v 1.000000 0.200000 -1.150200
v 1.000000 -0.557515 -1.000000
v 1.000000 0.557515 -1.000000
v 1.000000 0.600000 -0.981045
vn -0.349300 -0.184200 0.918700
vn -0.096100 -0.194700 0.976100
vn -0.096100 0.194700 0.976100
vn -0.349300 0.184200 0.918700
vn 0.000000 -0.197500 0.980300
vn 0.000000 0.197500 0.980300
vn 0.000000 0.397400 0.917600
vn -0.094700 0.396600 0.913100
vn 0.000000 0.566700 0.823900
vn -0.087000 0.558700 0.824800
vn 0.000000 0.823900 0.566700
vn -0.087000 0.824800 0.558700
vn 0.000000 0.917600 0.397400
vn -0.094700 0.913100 0.396600
vn 0.000000 0.980300 0.197500
vn -0.096100 0.976100 0.194700
vn 0.000000 0.980300 -0.197500
vn -0.096100 0.976100 -0.194700
vn 0.000000 0.917600 -0.397400
vn -0.094700 0.913100 -0.396600
vn 0.000000 0.823900 -0.566700
vn -0.087000 0.824800 -0.558700
vn 0.000000 0.566700 -0.823900
vn -0.087000 0.558700 -0.824800
vn 0.000000 0.397400 -0.917600
vn -0.094700 0.396600 -0.913100
vn 0.000000 0.197500 -0.980300
vn -0.096100 0.194700 -0.976100
vn 0.000000 -0.197500 -0.980300
vn -0.096100 -0.194700 -0.976100
vn 0.000000 -0.397400 -0.917600
vn -0.094700 -0.396600 -0.913100
vn 0.000000 -0.566700 -0.823900
vn -0.087000 -0.558700 -0.824800
vn 0.000000 -0.823900 -0.566700
vn -0.087000 -0.824800 -0.558700
vn 0.000000 -0.917600 -0.397400
vn -0.094700 -0.913100 -0.396600
vn 0.000000 -0.980300 -0.197500
vn -0.096100 -0.976100 -0.194700
vn 0.000000 -0.980300 0.197500
vn -0.096100 -0.976100 0.194700
vn 0.000000 -0.917600 0.397400
vn -0.094700 -0.913100 0.396600
vn 0.000000 -0.823900 0.566700
vn -0.087000 -0.824800 0.558700
vn 0.000000 -0.566700 0.823900
vn -0.087000 -0.558700 0.824800
vn 0.000000 -0.397400 0.917600
vn -0.094700 -0.396600 0.913100
vn 0.094700 0.396600 0.913100
vn 0.087000 0.558700 0.824800
vn 0.369400 0.385600 0.845500
vn 0.363000 0.521700 0.772100
vn 0.351500 0.770200 0.532100
vn 0.087000 0.824800 0.558700
vn 0.616300 0.542300 0.571100
vn 0.729900 0.381800 0.566900
vn 0.543200 0.194800 0.816700
vn 0.655600 0.191700 0.730300
vn 0.543200 -0.194800 0.816700
vn 0.655600 -0.191700 0.730300
vn 0.726700 -0.388300 0.566600
vn 0.369400 -0.385600 0.845500
vn 0.363000 -0.521700 0.772100
vn 0.616300 -0.542300 0.571100
vn 0.351500 -0.770200 0.532100
vn 0.659600 -0.728800 0.183500
vn 0.719300 -0.562000 0.408200
vn 0.358600 -0.854200 0.376300
vn 0.539200 -0.823200 0.177700
vn 0.539200 -0.823200 -0.177700
vn 0.659600 -0.728800 -0.183500
vn 0.358600 -0.854200 -0.376300
vn 0.351500 -0.770200 -0.532100
vn 0.616300 -0.542300 -0.571100
vn 0.732700 -0.541600 -0.412000
vn 0.729900 -0.381800 -0.566900
vn 0.363000 -0.521700 -0.772100
vn 0.369400 -0.385600 -0.845500
vn 0.543200 -0.194800 -0.816700
vn 0.655600 -0.191700 -0.730300
vn 0.543200 0.194800 -0.816700
vn 0.655600 0.191700 -0.730300
vn 0.726700 0.388300 -0.566600
vn 0.369400 0.385600 -0.845500
vn 0.363000 0.521700 -0.772100
vn 0.616300 0.542300 -0.571100
vn 0.351500 0.770200 -0.532100
vn 0.659600 0.728800 -0.183500
vn 0.719300 0.562000 -0.408200
vn 0.358600 0.854200 -0.376300
vn 0.539200 0.823200 -0.177700
vn 0.349300 0.918700 -0.184200
vn 0.539200 0.823200 0.177700
vn 0.349300 0.918700 0.184200
vn 0.358600 0.854200 0.376300
vn 0.094700 0.913100 0.396600
vn 0.096100 0.976100 0.194700
vn 0.096100 0.976100 -0.194700
vn 0.094700 0.913100 -0.396600
vn 0.847600 0.499500 -0.178900
vn 0.966400 0.181800 -0.181800
vn 0.848100 0.178300 -0.498900
vn 0.850800 -0.191400 -0.489400
vn 0.966200 -0.182500 -0.181900
vn 0.850300 0.491100 0.189000
vn 0.966200 0.182500 0.181900
vn 0.732700 0.541600 0.412000
vn 0.850800 0.191400 0.489400
vn 0.659600 0.728800 0.183500
vn 0.087000 0.824800 -0.558700
vn 0.349300 0.184200 -0.918700
vn 0.349300 -0.184200 -0.918700
vn 0.850300 -0.491100 -0.189000
vn 0.349300 -0.918700 -0.184200
vn 0.094700 -0.913100 -0.396600
vn 0.096100 -0.976100 -0.194700
vn 0.087000 -0.558700 -0.824800
vn 0.087000 -0.824800 -0.558700
vn 0.847600 -0.499500 0.178900
vn 0.094700 -0.913100 0.396600
vn 0.087000 -0.824800 0.558700
vn 0.087000 -0.558700 0.824800
vn 0.094700 -0.396600 0.913100
vn 0.349300 -0.184200 0.918700
vn 0.848100 -0.178300 0.498900
vn 0.349300 0.184200 0.918700
vn 0.096100 -0.976100 0.194700
vn -0.363000 -0.521700 0.772100
vn -0.369400 -0.385600 0.845500
vn -0.543200 -0.194800 0.816700
vn -0.655600 -0.191700 0.730300
vn -0.729900 -0.381800 0.566900
vn -0.616300 -0.542300 0.571100
vn -0.543200 0.194800 0.816700
vn -0.655600 0.191700 0.730300
vn -0.369400 0.385600 0.845500
vn -0.363000 0.521700 0.772100
vn -0.616300 0.542300 0.571100
vn -0.726700 0.388300 0.566600
vn -0.351500 0.770200 0.532100
vn -0.848100 0.178300 0.498900
vn -0.850800 -0.191400 0.489400
vn -0.966400 0.181800 0.181800
vn -0.966200 -0.182500 0.181900
vn -0.850300 -0.491100 0.189000
vn -0.732700 -0.541600 0.412000
vn -0.659600 -0.728800 0.183500
vn -0.847600 -0.499500 -0.178900
vn -0.659600 -0.728800 -0.183500
vn -0.719300 -0.562000 -0.408200
vn -0.966400 -0.181800 -0.181800
vn -0.848100 -0.178300 -0.498900
vn -0.726700 -0.388300 -0.566600
vn -0.966200 0.182500 -0.181900
vn -0.850800 0.191400 -0.489400
vn -0.850300 0.491100 -0.189000
vn -0.732700 0.541600 -0.412000
vn -0.729900 0.381800 -0.566900
vn -0.659600 0.728800 -0.183500
vn -0.351500 0.770200 -0.532100
vn -0.616300 0.542300 -0.571100
vn -0.539200 0.823200 -0.177700
vn -0.358600 0.854200 -0.376300
vn -0.349300 0.918700 -0.184200
vn -0.539200 0.823200 0.177700
vn -0.349300 0.918700 0.184200
vn -0.358600 0.854200 0.376300
vn -0.655600 0.191700 -0.730300
vn -0.655600 -0.191700 -0.730300
vn -0.616300 -0.542300 -0.571100
vn -0.351500 -0.770200 -0.532100
vn -0.358600 -0.854200 -0.376300
vn -0.539200 -0.823200 -0.177700
vn -0.349300 -0.918700 -0.184200
vn -0.363000 -0.521700 -0.772100
vn -0.539200 -0.823200 0.177700
vn -0.351500 -0.770200 0.532100
vn -0.358600 -0.854200 0.376300
vn -0.349300 -0.918700 0.184200
vn -0.659600 0.728800 0.183500
vn -0.719300 0.562000 0.408200
vn -0.847600 0.499500 0.178900
vn -0.349300 0.184200 -0.918700
vn -0.349300 -0.184200 -0.918700
vn -0.369400 -0.385600 -0.845500
vn -0.543200 -0.194800 -0.816700
vn -0.543200 0.194800 -0.816700
vn -0.369400 0.385600 -0.845500
vn -0.363000 0.521700 -0.772100
vn 0.096100 0.194700 0.976100
vn 0.096100 -0.194700 0.976100
vn 0.349300 -0.918700 0.184200
vn 0.966400 -0.181800 0.181800
vn 0.096100 0.194700 -0.976100
vn 0.096100 -0.194700 -0.976100
vn 0.094700 -0.396600 -0.913100
vn 0.094700 0.396600 -0.913100
vn 0.087000 0.558700 -0.824800
usemtl None
s 1
f 1//1 4//2 3//3 2//4
f 6//5 5//6 3//3 4//2
f 3//3 5//6 8//7 7//8
f 8//7 10//9 9//10 7//8
f 9//10 10//9 12//11 11//12
f 12//11 14//13 13//14 11//12
f 13//14 14//13 16//15 15//16
f 16//15 18//17 17//18 15//16
f 18//17 20//19 19//20 17//18
f 19//20 20//19 22//21 21//22
f 22//21 24//23 23//24 21//22
f 23//24 24//23 26//25 25//26
f 26//25 28//27 27//28 25//26
f 27//28 28//27 30//29 29//30
f 29//30 30//29 32//31 31//32
f 32//31 34//33 33//34 31//32
f 33//34 34//33 36//35 35//36
f 36//35 38//37 37//38 35//36
f 37//38 38//37 40//39 39//40
f 39//40 40//39 42//41 41//42
f 42//41 44//43 43//44 41//42
f 43//44 44//43 46//45 45//46
f 46//45 48//47 47//48 45//46
f 47//48 48//47 50//49 49//50
f 48//47 52//47 51//49 50//49
f 52//47 54//47 53//49 51//49
f 56//45 54//47 52//47 55//45
f 58//43 57//43 56//45 55//45
f 57//43 60//43 59//45 56//45
f 62//41 60//43 57//43 61//41
f 64//39 63//39 62//41 61//41
f 66//37 65//37 63//39 64//39
f 68//35 65//37 66//37 67//35
f 70//33 69//33 68//35 67//35
f 72//31 69//33 70//33 71//31
f 74//29 73//29 72//31 71//31
f 76//27 75//27 73//29 74//29
f 78//25 75//27 76//27 77//25
f 80//23 79//23 78//25 77//25
f 82//21 79//23 80//23 81//21
f 84//19 83//19 82//21 81//21
f 86//17 83//19 84//19 85//17
f 88//15 86//17 85//17 87//15
f 90//13 89//13 88//15 87//15
f 92//11 89//13 90//13 91//11
f 94//9 93//9 92//11 91//11
f 96//7 93//9 94//9 95//7
f 98//6 97//6 96//7 95//7
f 100//5 97//6 98//6 99//5
f 101//49 100//5 99//5 53//49
f 103//51 102//52 93//9 96//7
f 105//53 104//54 102//52 103//51
f 102//52 104//54 107//55 106//56
f 104//54 108//57 107//55
f 109//58 108//57 104//54 105//53
f 111//59 110//60 109//58 105//53
f 110//60 111//59 113//61 112//62
f 115//63 112//62 113//61 114//64
f 117//65 116//66 115//63 114//64
f 116//66 117//65 118//67
f 120//68 119//69 116//66 118//67
f 122//70 121//71 120//68 118//67
f 121//71 124//72 123//73 120//68
f 123//73 124//72 126//74 125//75
f 128//76 127//77 123//73 125//75
f 127//77 128//76 129//78
f 129//78 128//76 131//79 130//80
f 133//81 132//82 129//78 130//80
f 133//81 135//83 134//84 132//82
f 137//85 134//84 135//83 136//86
f 139//87 138//88 137//85 136//86
f 138//88 139//87 140//89
f 142//90 141//91 138//88 140//89
f 144//92 143//93 142//90 140//89
f 143//93 144//92 145//94
f 147//95 143//93 145//94 146//96
f 148//97 147//95 146//96
f 150//98 148//97 146//96 149//99
f 146//96 145//94 151//100 149//99
f 145//94 144//92 152//101 151//100
f 153//102 141//91 142//90
f 153//102 155//103 154//104 137//85
f 141//91 153//102 137//85
f 157//105 154//104 155//103 156//106
f 155//103 153//102 159//107 158//108
f 158//108 159//107 160//109 109//58
f 161//110 158//108 109//58
f 160//109 159//107 162//111
f 159//107 153//102 142//90 162//111
f 152//101 144//92 140//89 163//112
f 135//83 164//113 136//86
f 138//88 141//91 137//85
f 154//104 134//84 137//85
f 164//113 135//83 133//81 165//114
f 134//84 154//104 157//105 132//82
f 165//114 133//81 130//80
f 132//82 157//105 129//78
f 156//106 166//115 127//77 129//78
f 157//105 156//106 129//78
f 126//74 124//72 167//116
f 169//117 126//74 167//116 168//118
f 131//79 128//76 125//75
f 171//119 131//79 125//75 170//120
f 127//77 166//115 123//73
f 125//75 126//74 169//117 170//120
f 123//73 166//115 172//121 120//68
f 172//121 119//69 120//68
f 174//122 122//70 118//67 173//123
f 118//67 117//65 175//124 173//123
f 173//123 175//124 176//47 59//45
f 176//47 175//124 177//125 101//49
f 116//66 119//69 115//63
f 113//61 178//126 114//64
f 179//127 112//62 115//63
f 175//124 117//65 114//64 177//125
f 113//61 111//59 180//128 178//126
f 179//127 161//110 110//60 112//62
f 180//128 111//59 105//53
f 110//60 161//110 109//58
f 95//7 94//9 182//9 181//7
f 93//9 102//52 106//56 92//11
f 182//9 94//9 91//11 183//11
f 106//56 150//98 89//13 92//11
f 89//13 150//98 149//99 88//15
f 149//99 151//100 86//17 88//15
f 151//100 152//101 83//19 86//17
f 85//17 84//19 185//19 184//17
f 83//19 152//101 163//112 82//21
f 185//19 84//19 81//21 186//21
f 69//33 171//119 170//120 68//35
f 188//33 70//33 67//35 187//35
f 170//120 169//117 65//37 68//35
f 67//35 66//37 189//37 187//35
f 65//37 169//117 168//118 63//39
f 189//37 66//37 64//39 190//39
f 63//39 168//118 191//129 62//41
f 191//129 174//122 60//43 62//41
f 60//43 174//122 173//123 59//45
f 59//45 176//47 54//47 56//45
f 54//47 176//47 101//49 53//49
f 193//130 47//48 49//50 192//131
f 192//131 196//132 195//133 194//134
f 197//135 193//130 192//131 194//134
f 196//132 199//136 198//137 195//133
f 203//138 202//139 201//140 200//141
f 198//137 199//136 203//138 200//141
f 201//140 202//139 204//142
f 205//143 198//137 200//141
f 198//137 205//143 206//144 195//133
f 205//143 208//145 207//146 206//144
f 207//146 210//147 209//148 194//134
f 206//144 207//146 194//134
f 209//148 210//147 211//149
f 210//147 213//150 212//151 211//149
f 213//150 214//152 212//151
f 213//150 217//153 216//154 215//155
f 214//152 213//150 215//155
f 219//156 218//157 216//154 217//153
f 219//156 222//158 221//159 220//160
f 218//157 219//156 220//160
f 221//159 222//158 223//161
f 225//162 224//163 221//159 223//161
f 227//164 226//165 225//162 223//161
f 226//165 227//164 228//166
f 228//166 227//164 230//167 229//168
f 230//167 231//169 229//168
f 232//170 218//157 220//160
f 221//159 224//163 220//160
f 216//154 218//157 232//170 233//171
f 216//154 233//171 215//155
f 234//172 214//152 215//155
f 237//173 236//174 235//175 212//151
f 214//152 234//172 237//173 212//151
f 235//175 236//174 238//176
f 234//172 239//177 237//173
f 212//151 235//175 240//178 211//149
f 241//179 197//135 209//148 211//149
f 240//178 242//180 241//179 211//149
f 207//146 217//153 213//150 210//147
f 208//145 219//156 217//153 207//146
f 193//130 197//135 241//179
f 209//148 197//135 194//134
f 195//133 206//144 194//134
f 55//45 52//47 48//47 46//45
f 45//46 47//48 193//130 241//179
f 44//43 58//43 55//45 46//45
f 242//180 43//44 45//46 241//179
f 41//42 43//44 242//180 243//181
f 238//176 39//40 41//42 243//181
f 38//37 189//37 190//39 40//39
f 236//174 37//38 39//40 238//176
f 187//35 189//37 38//37 36//35
f 35//36 37//38 236//174 237//173
f 34//33 188//33 187//35 36//35
f 239//177 33//34 35//36 237//173
f 20//19 185//19 186//21 22//21
f 226//165 19//20 21//22 225//162
f 184//17 185//19 20//19 18//17
f 17//18 19//20 226//165 228//166
f 15//16 17//18 228//166 229//168
f 231//169 13//14 15//16 229//168
f 11//12 13//14 231//169 204//142
f 10//9 182//9 183//11 12//11
f 202//139 9//10 11//12 204//142
f 181//7 182//9 10//9 8//7
f 7//8 9//10 202//139 203//138
f 50//49 6//5 4//2 49//50
f 49//50 4//2 1//1 192//131
f 1//1 2//4 199//136 196//132
f 1//1 196//132 192//131
f 2//4 3//3 7//8 203//138
f 199//136 2//4 203//138
f 240//178 235//175 238//176 243//181
f 242//180 240//178 243//181
f 230//167 227//164 223//161 244//182
f 204//142 231//169 230//167 244//182
f 245//183 201//140 204//142 244//182
f 201//140 245//183 200//141
f 223//161 222//158 246//184 244//182
f 246//184 222//158 219//156 208//145
f 246//184 245//183 244//182
f 246//184 208//145 205//143 200//141
f 245//183 246//184 200//141
f 248//185 27//28 29//30 247//186
f 247//186 29//30 31//32 249//187
f 31//32 33//34 239//177 249//187
f 251//188 250//189 248//185 247//186
f 251//188 247//186 249//187
f 232//170 250//189 251//188 233//171
f 249//187 239//177 234//172 215//155
f 233//171 251//188 249//187 215//155
f 25//26 27//28 248//185 252//190
f 21//22 23//24 253//191 225//162
f 253//191 23//24 25//26 252//190
f 248//185 250//189 252//190
f 253//191 224//163 225//162
f 252//190 250//189 232//170 220//160
f 224//163 253//191 252//190 220//160
f 99//5 98//6 255//6 254//5
f 53//49 99//5 254//5 51//49
f 254//5 255//6 5//6 6//5
f 51//49 254//5 6//5 50//49
f 255//6 98//6 95//7 181//7
f 5//6 255//6 181//7 8//7
f 190//39 64//39 61//41 256//41
f 61//41 57//43 58//43 256//41
f 40//39 190//39 256//41 42//41
f 256//41 58//43 44//43 42//41
f 87//15 85//17 184//17 257//15
f 258//13 90//13 87//15 257//15
f 91//11 90//13 258//13 183//11
f 257//15 184//17 18//17 16//15
f 14//13 258//13 257//15 16//15
f 183//11 258//13 14//13 12//11
f 260//27 76//27 74//29 259//29
f 259//29 74//29 71//31 261//31
f 71//31 70//33 188//33 261//31
f 28//27 260//27 259//29 30//29
f 30//29 259//29 261//31 32//31
f 261//31 188//33 34//33 32//31
f 77//25 76//27 260//27 262//25
f 81//21 80//23 263//23 186//21
f 263//23 80//23 77//25 262//25
f 262//25 260//27 28//27 26//25
f 186//21 263//23 24//23 22//21
f 24//23 263//23 262//25 26//25
f 178//126 180//128 265//192 264//193
f 114//64 178//126 264//193 177//125
f 264//193 265//192 97//6 100//5
f 177//125 264//193 100//5 101//49
f 265//192 180//128 105//53 103//51
f 97//6 265//192 103//51 96//7
f 167//116 124//72 121//71 266//194
f 121//71 122//70 266//194
f 168//118 167//116 266//194 191//129
f 266//194 122//70 174//122 191//129
f 156//106 155//103 158//108 267//195
f 166//115 156//106 267//195 172//121
f 267//195 158//108 161//110 179//127
f 172//121 267//195 179//127 115//63
f 119//69 172//121 115//63
f 142//90 143//93 147//95 162//111
f 162//111 147//95 148//97 107//55
f 108//57 160//109 162//111 107//55
f 160//109 108//57 109//58
f 107//55 148//97 150//98 106//56
f 269//196 164//113 165//114 268//197
f 268//197 165//114 130//80 270//198
f 130//80 131//79 171//119 270//198
f 75//27 269//196 268//197 73//29
f 73//29 268//197 270//198 72//31
f 270//198 171//119 69//33 72//31
f 136//86 164//113 269//196 271//199
f 140//89 139//87 272//200 163//112
f 272//200 139//87 136//86 271//199
f 271//199 269//196 75//27 78//25
f 163//112 272//200 79//23 82//21
f 79//23 272//200 271//199 78//25
